<svg width="226" height="719" viewBox="0 0 226 719" fill="none" xmlns="http://www.w3.org/2000/svg">
<rect x="54" width="109" height="570" rx="54.5" fill="#C4C4C4" fill-opacity="0.9"/>
<circle cx="109" cy="610" r="109" fill="#C4C4C4"/>
<circle cx="108.5" cy="610.5" r="94.5" fill="#EF2424"/>
<rect x="67" y="398" width="84" height="142" fill="#EF2424"/>
<line x1="163" y1="451" x2="100" y2="451" stroke="black" stroke-width="6"/>
<line x1="163" y1="473" x2="133" y2="473" stroke="black" stroke-width="6"/>
<line x1="163" y1="319" x2="100" y2="319" stroke="black" stroke-width="6"/>
<line x1="163" y1="341" x2="133" y2="341" stroke="black" stroke-width="6"/>
<line x1="163" y1="363" x2="100" y2="363" stroke="black" stroke-width="6"/>
<line x1="163" y1="385" x2="133" y2="385" stroke="black" stroke-width="6"/>
<line x1="163" y1="407" x2="100" y2="407" stroke="black" stroke-width="6"/>
<line x1="163" y1="429" x2="133" y2="429" stroke="black" stroke-width="6"/>
<line x1="163" y1="272" x2="100" y2="272" stroke="black" stroke-width="6"/>
<line x1="163" y1="294" x2="133" y2="294" stroke="black" stroke-width="6"/>
<line x1="163" y1="140" x2="100" y2="140" stroke="black" stroke-width="6"/>
<line x1="163" y1="162" x2="133" y2="162" stroke="black" stroke-width="6"/>
<line x1="163" y1="184" x2="100" y2="184" stroke="black" stroke-width="6"/>
<line x1="163" y1="206" x2="133" y2="206" stroke="black" stroke-width="6"/>
<line x1="163" y1="228" x2="100" y2="228" stroke="black" stroke-width="6"/>
<line x1="163" y1="250" x2="133" y2="250" stroke="black" stroke-width="6"/>
</svg>
