<svg width="226" height="719" viewBox="0 0 226 719" fill="none" xmlns="http://www.w3.org/2000/svg">
<rect x="54" width="109" height="570" rx="54.5" fill="#C4C4C4" fill-opacity="0.9"/>
<circle cx="109" cy="610" r="109" fill="#C4C4C4"/>
<circle cx="108.5" cy="609.5" r="94.5" fill="#EF2424"/>
<line x1="163" y1="425" x2="100" y2="425" stroke="black" stroke-width="6"/>
<line x1="163" y1="447" x2="133" y2="447" stroke="black" stroke-width="6"/>
<line x1="163" y1="293" x2="100" y2="293" stroke="black" stroke-width="6"/>
<line x1="163" y1="315" x2="133" y2="315" stroke="black" stroke-width="6"/>
<line x1="163" y1="337" x2="100" y2="337" stroke="black" stroke-width="6"/>
<line x1="163" y1="359" x2="133" y2="359" stroke="black" stroke-width="6"/>
<line x1="163" y1="381" x2="100" y2="381" stroke="black" stroke-width="6"/>
<line x1="163" y1="403" x2="133" y2="403" stroke="black" stroke-width="6"/>
<line x1="163" y1="246" x2="100" y2="246" stroke="black" stroke-width="6"/>
<line x1="163" y1="268" x2="133" y2="268" stroke="black" stroke-width="6"/>
<line x1="163" y1="114" x2="100" y2="114" stroke="black" stroke-width="6"/>
<line x1="163" y1="136" x2="133" y2="136" stroke="black" stroke-width="6"/>
<line x1="163" y1="158" x2="100" y2="158" stroke="black" stroke-width="6"/>
<line x1="163" y1="180" x2="133" y2="180" stroke="black" stroke-width="6"/>
<line x1="163" y1="202" x2="100" y2="202" stroke="black" stroke-width="6"/>
<line x1="163" y1="224" x2="133" y2="224" stroke="black" stroke-width="6"/>
</svg>
