<svg width="169" height="28" viewBox="0 0 169 28" fill="none" xmlns="http://www.w3.org/2000/svg">
<rect y="6" width="40" height="15" fill="#6C63FF"/>
<path d="M62.6797 4.9375L68.2578 18.8594L73.8359 4.9375H76.7539V22H74.5039V15.3555L74.7148 8.18359L69.1133 22H67.3906L61.8008 8.21875L62.0234 15.3555V22H59.7734V4.9375H62.6797ZM84.5352 18.8242L87.4883 9.32031H89.8086L84.7109 23.957C83.9219 26.0664 82.668 27.1211 80.9492 27.1211L80.5391 27.0859L79.7305 26.9336V25.1758L80.3164 25.2227C81.0508 25.2227 81.6211 25.0742 82.0273 24.7773C82.4414 24.4805 82.7812 23.9375 83.0469 23.1484L83.5273 21.8594L79.0039 9.32031H81.3711L84.5352 18.8242ZM111.16 22H108.898V14.1133H100.297V22H98.0469V4.9375H100.297V12.2734H108.898V4.9375H111.16V22ZM114.242 15.543C114.242 14.3008 114.484 13.1836 114.969 12.1914C115.461 11.1992 116.141 10.4336 117.008 9.89453C117.883 9.35547 118.879 9.08594 119.996 9.08594C121.723 9.08594 123.117 9.68359 124.18 10.8789C125.25 12.0742 125.785 13.6641 125.785 15.6484V15.8008C125.785 17.0352 125.547 18.1445 125.07 19.1289C124.602 20.1055 123.926 20.8672 123.043 21.4141C122.168 21.9609 121.16 22.2344 120.02 22.2344C118.301 22.2344 116.906 21.6367 115.836 20.4414C114.773 19.2461 114.242 17.6641 114.242 15.6953V15.543ZM116.422 15.8008C116.422 17.207 116.746 18.3359 117.395 19.1875C118.051 20.0391 118.926 20.4648 120.02 20.4648C121.121 20.4648 121.996 20.0352 122.645 19.1758C123.293 18.3086 123.617 17.0977 123.617 15.543C123.617 14.1523 123.285 13.0273 122.621 12.168C121.965 11.3008 121.09 10.8672 119.996 10.8672C118.926 10.8672 118.062 11.293 117.406 12.1445C116.75 12.9961 116.422 14.2148 116.422 15.8008ZM136.332 20.7461C135.488 21.7383 134.25 22.2344 132.617 22.2344C131.266 22.2344 130.234 21.8438 129.523 21.0625C128.82 20.2734 128.465 19.1094 128.457 17.5703V9.32031H130.625V17.5117C130.625 19.4336 131.406 20.3945 132.969 20.3945C134.625 20.3945 135.727 19.7773 136.273 18.543V9.32031H138.441V22H136.379L136.332 20.7461ZM149.129 18.6367C149.129 18.0508 148.906 17.5977 148.461 17.2773C148.023 16.9492 147.254 16.668 146.152 16.4336C145.059 16.1992 144.188 15.918 143.539 15.5898C142.898 15.2617 142.422 14.8711 142.109 14.418C141.805 13.9648 141.652 13.4258 141.652 12.8008C141.652 11.7617 142.09 10.8828 142.965 10.1641C143.848 9.44531 144.973 9.08594 146.34 9.08594C147.777 9.08594 148.941 9.45703 149.832 10.1992C150.73 10.9414 151.18 11.8906 151.18 13.0469H149C149 12.4531 148.746 11.9414 148.238 11.5117C147.738 11.082 147.105 10.8672 146.34 10.8672C145.551 10.8672 144.934 11.0391 144.488 11.3828C144.043 11.7266 143.82 12.1758 143.82 12.7305C143.82 13.2539 144.027 13.6484 144.441 13.9141C144.855 14.1797 145.602 14.4336 146.68 14.6758C147.766 14.918 148.645 15.207 149.316 15.543C149.988 15.8789 150.484 16.2852 150.805 16.7617C151.133 17.2305 151.297 17.8047 151.297 18.4844C151.297 19.6172 150.844 20.5273 149.938 21.2148C149.031 21.8945 147.855 22.2344 146.41 22.2344C145.395 22.2344 144.496 22.0547 143.715 21.6953C142.934 21.3359 142.32 20.8359 141.875 20.1953C141.438 19.5469 141.219 18.8477 141.219 18.0977H143.387C143.426 18.8242 143.715 19.4023 144.254 19.832C144.801 20.2539 145.52 20.4648 146.41 20.4648C147.23 20.4648 147.887 20.3008 148.379 19.9727C148.879 19.6367 149.129 19.1914 149.129 18.6367ZM159.383 22.2344C157.664 22.2344 156.266 21.6719 155.188 20.5469C154.109 19.4141 153.57 17.9023 153.57 16.0117V15.6133C153.57 14.3555 153.809 13.2344 154.285 12.25C154.77 11.2578 155.441 10.4844 156.301 9.92969C157.168 9.36719 158.105 9.08594 159.113 9.08594C160.762 9.08594 162.043 9.62891 162.957 10.7148C163.871 11.8008 164.328 13.3555 164.328 15.3789V16.2812H155.738C155.77 17.5312 156.133 18.543 156.828 19.3164C157.531 20.082 158.422 20.4648 159.5 20.4648C160.266 20.4648 160.914 20.3086 161.445 19.9961C161.977 19.6836 162.441 19.2695 162.84 18.7539L164.164 19.7852C163.102 21.418 161.508 22.2344 159.383 22.2344ZM159.113 10.8672C158.238 10.8672 157.504 11.1875 156.91 11.8281C156.316 12.4609 155.949 13.3516 155.809 14.5H162.16V14.3359C162.098 13.2344 161.801 12.3828 161.27 11.7812C160.738 11.1719 160.02 10.8672 159.113 10.8672Z" fill="#6C63FF"/>
</svg>
