<svg width="169" height="51" viewBox="0 0 169 51" fill="none" xmlns="http://www.w3.org/2000/svg">
<rect y="20" width="40" height="15" fill="#EF224B"/>
<path d="M81.7344 14.4648H74.5742V22H72.3242V4.9375H82.8945V6.78906H74.5742V12.625H81.7344V14.4648ZM91.0742 11.2656C90.7461 11.2109 90.3906 11.1836 90.0078 11.1836C88.5859 11.1836 87.6211 11.7891 87.1133 13V22H84.9453V9.32031H87.0547L87.0898 10.7852C87.8008 9.65234 88.8086 9.08594 90.1133 9.08594C90.5352 9.08594 90.8555 9.14062 91.0742 9.25V11.2656ZM95.4336 22H93.2656V9.32031H95.4336V22ZM93.0898 5.95703C93.0898 5.60547 93.1953 5.30859 93.4062 5.06641C93.625 4.82422 93.9453 4.70312 94.3672 4.70312C94.7891 4.70312 95.1094 4.82422 95.3281 5.06641C95.5469 5.30859 95.6562 5.60547 95.6562 5.95703C95.6562 6.30859 95.5469 6.60156 95.3281 6.83594C95.1094 7.07031 94.7891 7.1875 94.3672 7.1875C93.9453 7.1875 93.625 7.07031 93.4062 6.83594C93.1953 6.60156 93.0898 6.30859 93.0898 5.95703ZM104.176 22.2344C102.457 22.2344 101.059 21.6719 99.9805 20.5469C98.9023 19.4141 98.3633 17.9023 98.3633 16.0117V15.6133C98.3633 14.3555 98.6016 13.2344 99.0781 12.25C99.5625 11.2578 100.234 10.4844 101.094 9.92969C101.961 9.36719 102.898 9.08594 103.906 9.08594C105.555 9.08594 106.836 9.62891 107.75 10.7148C108.664 11.8008 109.121 13.3555 109.121 15.3789V16.2812H100.531C100.562 17.5312 100.926 18.543 101.621 19.3164C102.324 20.082 103.215 20.4648 104.293 20.4648C105.059 20.4648 105.707 20.3086 106.238 19.9961C106.77 19.6836 107.234 19.2695 107.633 18.7539L108.957 19.7852C107.895 21.418 106.301 22.2344 104.176 22.2344ZM103.906 10.8672C103.031 10.8672 102.297 11.1875 101.703 11.8281C101.109 12.4609 100.742 13.3516 100.602 14.5H106.953V14.3359C106.891 13.2344 106.594 12.3828 106.062 11.7812C105.531 11.1719 104.812 10.8672 103.906 10.8672ZM113.691 9.32031L113.762 10.9141C114.73 9.69531 115.996 9.08594 117.559 9.08594C120.238 9.08594 121.59 10.5977 121.613 13.6211V22H119.445V13.6094C119.438 12.6953 119.227 12.0195 118.812 11.582C118.406 11.1445 117.77 10.9258 116.902 10.9258C116.199 10.9258 115.582 11.1133 115.051 11.4883C114.52 11.8633 114.105 12.3555 113.809 12.9648V22H111.641V9.32031H113.691ZM124.355 15.5547C124.355 13.6094 124.816 12.0469 125.738 10.8672C126.66 9.67969 127.867 9.08594 129.359 9.08594C130.844 9.08594 132.02 9.59375 132.887 10.6094V4H135.055V22H133.062L132.957 20.6406C132.09 21.7031 130.883 22.2344 129.336 22.2344C127.867 22.2344 126.668 21.6328 125.738 20.4297C124.816 19.2266 124.355 17.6562 124.355 15.7188V15.5547ZM126.523 15.8008C126.523 17.2383 126.82 18.3633 127.414 19.1758C128.008 19.9883 128.828 20.3945 129.875 20.3945C131.25 20.3945 132.254 19.7773 132.887 18.543V12.7188C132.238 11.5234 131.242 10.9258 129.898 10.9258C128.836 10.9258 128.008 11.3359 127.414 12.1562C126.82 12.9766 126.523 14.1914 126.523 15.8008ZM138.582 9.74219L137.352 8.89844C138.078 7.88281 138.453 6.8125 138.477 5.6875V4H140.621V5.52344C140.613 6.30469 140.418 7.08594 140.035 7.86719C139.66 8.64062 139.176 9.26562 138.582 9.74219ZM149.305 18.6367C149.305 18.0508 149.082 17.5977 148.637 17.2773C148.199 16.9492 147.43 16.668 146.328 16.4336C145.234 16.1992 144.363 15.918 143.715 15.5898C143.074 15.2617 142.598 14.8711 142.285 14.418C141.98 13.9648 141.828 13.4258 141.828 12.8008C141.828 11.7617 142.266 10.8828 143.141 10.1641C144.023 9.44531 145.148 9.08594 146.516 9.08594C147.953 9.08594 149.117 9.45703 150.008 10.1992C150.906 10.9414 151.355 11.8906 151.355 13.0469H149.176C149.176 12.4531 148.922 11.9414 148.414 11.5117C147.914 11.082 147.281 10.8672 146.516 10.8672C145.727 10.8672 145.109 11.0391 144.664 11.3828C144.219 11.7266 143.996 12.1758 143.996 12.7305C143.996 13.2539 144.203 13.6484 144.617 13.9141C145.031 14.1797 145.777 14.4336 146.855 14.6758C147.941 14.918 148.82 15.207 149.492 15.543C150.164 15.8789 150.66 16.2852 150.98 16.7617C151.309 17.2305 151.473 17.8047 151.473 18.4844C151.473 19.6172 151.02 20.5273 150.113 21.2148C149.207 21.8945 148.031 22.2344 146.586 22.2344C145.57 22.2344 144.672 22.0547 143.891 21.6953C143.109 21.3359 142.496 20.8359 142.051 20.1953C141.613 19.5469 141.395 18.8477 141.395 18.0977H143.562C143.602 18.8242 143.891 19.4023 144.43 19.832C144.977 20.2539 145.695 20.4648 146.586 20.4648C147.406 20.4648 148.062 20.3008 148.555 19.9727C149.055 19.6367 149.305 19.1914 149.305 18.6367ZM92.0234 50H89.7617V42.1133H81.1602V50H78.9102V32.9375H81.1602V40.2734H89.7617V32.9375H92.0234V50ZM95.1055 43.543C95.1055 42.3008 95.3477 41.1836 95.832 40.1914C96.3242 39.1992 97.0039 38.4336 97.8711 37.8945C98.7461 37.3555 99.7422 37.0859 100.859 37.0859C102.586 37.0859 103.98 37.6836 105.043 38.8789C106.113 40.0742 106.648 41.6641 106.648 43.6484V43.8008C106.648 45.0352 106.41 46.1445 105.934 47.1289C105.465 48.1055 104.789 48.8672 103.906 49.4141C103.031 49.9609 102.023 50.2344 100.883 50.2344C99.1641 50.2344 97.7695 49.6367 96.6992 48.4414C95.6367 47.2461 95.1055 45.6641 95.1055 43.6953V43.543ZM97.2852 43.8008C97.2852 45.207 97.6094 46.3359 98.2578 47.1875C98.9141 48.0391 99.7891 48.4648 100.883 48.4648C101.984 48.4648 102.859 48.0352 103.508 47.1758C104.156 46.3086 104.48 45.0977 104.48 43.543C104.48 42.1523 104.148 41.0273 103.484 40.168C102.828 39.3008 101.953 38.8672 100.859 38.8672C99.7891 38.8672 98.9258 39.293 98.2695 40.1445C97.6133 40.9961 97.2852 42.2148 97.2852 43.8008ZM117.195 48.7461C116.352 49.7383 115.113 50.2344 113.48 50.2344C112.129 50.2344 111.098 49.8438 110.387 49.0625C109.684 48.2734 109.328 47.1094 109.32 45.5703V37.3203H111.488V45.5117C111.488 47.4336 112.27 48.3945 113.832 48.3945C115.488 48.3945 116.59 47.7773 117.137 46.543V37.3203H119.305V50H117.242L117.195 48.7461ZM129.992 46.6367C129.992 46.0508 129.77 45.5977 129.324 45.2773C128.887 44.9492 128.117 44.668 127.016 44.4336C125.922 44.1992 125.051 43.918 124.402 43.5898C123.762 43.2617 123.285 42.8711 122.973 42.418C122.668 41.9648 122.516 41.4258 122.516 40.8008C122.516 39.7617 122.953 38.8828 123.828 38.1641C124.711 37.4453 125.836 37.0859 127.203 37.0859C128.641 37.0859 129.805 37.457 130.695 38.1992C131.594 38.9414 132.043 39.8906 132.043 41.0469H129.863C129.863 40.4531 129.609 39.9414 129.102 39.5117C128.602 39.082 127.969 38.8672 127.203 38.8672C126.414 38.8672 125.797 39.0391 125.352 39.3828C124.906 39.7266 124.684 40.1758 124.684 40.7305C124.684 41.2539 124.891 41.6484 125.305 41.9141C125.719 42.1797 126.465 42.4336 127.543 42.6758C128.629 42.918 129.508 43.207 130.18 43.543C130.852 43.8789 131.348 44.2852 131.668 44.7617C131.996 45.2305 132.16 45.8047 132.16 46.4844C132.16 47.6172 131.707 48.5273 130.801 49.2148C129.895 49.8945 128.719 50.2344 127.273 50.2344C126.258 50.2344 125.359 50.0547 124.578 49.6953C123.797 49.3359 123.184 48.8359 122.738 48.1953C122.301 47.5469 122.082 46.8477 122.082 46.0977H124.25C124.289 46.8242 124.578 47.4023 125.117 47.832C125.664 48.2539 126.383 48.4648 127.273 48.4648C128.094 48.4648 128.75 48.3008 129.242 47.9727C129.742 47.6367 129.992 47.1914 129.992 46.6367ZM140.246 50.2344C138.527 50.2344 137.129 49.6719 136.051 48.5469C134.973 47.4141 134.434 45.9023 134.434 44.0117V43.6133C134.434 42.3555 134.672 41.2344 135.148 40.25C135.633 39.2578 136.305 38.4844 137.164 37.9297C138.031 37.3672 138.969 37.0859 139.977 37.0859C141.625 37.0859 142.906 37.6289 143.82 38.7148C144.734 39.8008 145.191 41.3555 145.191 43.3789V44.2812H136.602C136.633 45.5312 136.996 46.543 137.691 47.3164C138.395 48.082 139.285 48.4648 140.363 48.4648C141.129 48.4648 141.777 48.3086 142.309 47.9961C142.84 47.6836 143.305 47.2695 143.703 46.7539L145.027 47.7852C143.965 49.418 142.371 50.2344 140.246 50.2344ZM139.977 38.8672C139.102 38.8672 138.367 39.1875 137.773 39.8281C137.18 40.4609 136.812 41.3516 136.672 42.5H143.023V42.3359C142.961 41.2344 142.664 40.3828 142.133 39.7812C141.602 39.1719 140.883 38.8672 139.977 38.8672Z" fill="#EF224B"/>
</svg>
